<?xml version="1.0" standalone="no"?>
<!DOCTYPE svg PUBLIC "-//W3C//DTD SVG 20010904//EN"
 "http://www.w3.org/TR/2001/REC-SVG-20010904/DTD/svg10.dtd">
<svg version="1.0" xmlns="http://www.w3.org/2000/svg"
 width="512.000000pt" height="512.000000pt" viewBox="0 0 512.000000 512.000000"
 preserveAspectRatio="xMidYMid meet">
<metadata>
Created by potrace 1.16, written by Peter Selinger 2001-2019
</metadata>
<g transform="translate(0.000000,512.000000) scale(0.100000,-0.100000)"
fill="#000000" stroke="none">
<path d="M1760 4781 c-188 -60 -329 -203 -384 -390 -21 -72 -21 -230 0 -302
56 -189 204 -337 393 -393 61 -18 226 -22 279 -6 l34 9 69 -145 c38 -79 70
-148 72 -153 1 -4 -35 -36 -79 -69 -253 -191 -384 -455 -384 -774 l0 -117 -37
-10 c-21 -5 -94 -21 -163 -36 -69 -14 -131 -28 -138 -30 -7 -3 -25 21 -43 57
-17 34 -57 89 -88 121 -115 122 -242 177 -408 177 -114 0 -176 -15 -275 -67
-124 -65 -229 -197 -272 -342 -21 -72 -21 -230 0 -302 56 -189 204 -337 393
-393 72 -21 230 -21 302 0 231 68 391 261 408 494 l6 85 145 32 c80 17 159 34
176 37 30 6 30 5 63 -74 89 -218 291 -425 499 -511 28 -12 52 -27 52 -33 0 -6
-22 -90 -48 -186 l-48 -175 -85 -6 c-130 -10 -229 -57 -315 -151 -87 -95 -124
-192 -124 -329 0 -145 47 -257 148 -351 97 -91 194 -128 332 -128 138 0 235
37 332 128 102 95 148 206 148 353 0 177 -83 326 -233 418 -25 16 -36 28 -33
40 3 9 24 84 46 166 22 83 43 157 45 165 4 13 26 15 144 12 158 -5 256 10 381
59 94 36 217 111 292 179 l57 51 228 -182 c125 -100 231 -185 235 -188 4 -4
-3 -38 -17 -76 -19 -55 -25 -90 -25 -162 0 -149 46 -259 148 -355 97 -91 194
-128 332 -128 138 0 235 37 332 128 101 95 148 206 148 352 0 146 -47 257
-148 352 -97 91 -194 128 -334 128 -104 0 -181 -22 -265 -76 -35 -22 -59 -32
-66 -26 -128 98 -457 367 -455 371 2 3 24 49 50 101 71 143 89 219 95 390 4
113 2 164 -12 230 -20 97 -69 227 -115 301 -17 28 -30 54 -28 59 4 10 316 270
324 270 4 0 29 -13 55 -30 147 -90 355 -95 499 -12 154 89 240 240 240 422 0
146 -47 257 -148 352 -97 91 -194 128 -332 128 -138 0 -235 -37 -332 -128
-102 -95 -148 -206 -148 -353 0 -85 24 -193 51 -225 6 -7 -47 -57 -159 -150
l-167 -140 -66 55 c-123 104 -266 173 -421 205 -144 30 -358 18 -493 -26 l-40
-13 -73 153 -73 153 33 27 c88 73 147 158 183 265 31 92 35 240 9 328 -54 184
-188 323 -367 384 -95 31 -249 34 -337 6z m323 -184 c74 -34 160 -119 195
-194 24 -52 27 -70 27 -163 0 -93 -3 -111 -27 -163 -35 -74 -121 -160 -195
-195 -52 -24 -70 -27 -163 -27 -93 0 -111 3 -163 27 -74 35 -160 121 -195 195
-24 52 -27 70 -27 163 0 93 3 111 26 160 48 101 130 176 232 212 78 28 213 21
290 -15z m2215 -556 c54 -28 115 -88 144 -143 19 -36 23 -58 23 -138 0 -109
-17 -152 -85 -220 -68 -68 -111 -85 -220 -85 -80 0 -102 4 -138 23 -55 30
-115 90 -143 144 -27 52 -36 164 -20 225 24 90 116 186 205 213 54 17 186 6
234 -19z m-1408 -707 c44 -9 116 -36 175 -64 172 -84 281 -193 365 -365 59
-122 80 -212 80 -345 0 -126 -20 -220 -72 -330 -80 -174 -201 -296 -373 -380
-120 -58 -218 -81 -345 -81 -127 0 -224 23 -345 81 -172 84 -281 193 -365 365
-59 122 -80 212 -80 345 0 133 21 223 80 345 84 172 193 281 365 365 172 84
323 102 515 64z m-1847 -817 c74 -34 160 -119 195 -194 24 -52 27 -70 27 -163
0 -93 -3 -111 -27 -163 -35 -74 -121 -160 -195 -195 -52 -24 -70 -27 -163 -27
-93 0 -111 3 -163 27 -74 35 -160 121 -195 195 -24 52 -27 70 -27 163 0 93 3
111 26 160 48 101 130 176 232 212 78 28 213 21 290 -15z m3415 -956 c54 -28
115 -88 144 -143 19 -36 23 -58 23 -138 0 -109 -17 -152 -85 -220 -68 -68
-111 -85 -220 -85 -80 0 -102 4 -138 23 -55 30 -115 90 -143 144 -27 52 -36
164 -20 225 24 90 116 186 205 213 54 17 186 6 234 -19z m-2080 -480 c54 -28
115 -88 144 -143 19 -36 23 -58 23 -138 0 -109 -17 -152 -85 -220 -68 -68
-111 -85 -220 -85 -80 0 -102 4 -138 23 -55 30 -115 90 -143 144 -27 52 -36
164 -20 225 24 90 116 186 205 213 54 17 186 6 234 -19z"/>
<path d="M1792 4539 c-110 -43 -192 -163 -192 -284 0 -69 22 -95 80 -95 51 0
76 25 85 83 13 87 65 139 152 152 58 9 83 34 83 85 0 59 -25 80 -97 79 -33 0
-81 -9 -111 -20z"/>
<path d="M4055 3981 c-83 -38 -135 -120 -135 -211 0 -63 23 -90 78 -90 51 0
68 15 89 80 18 54 19 55 73 73 30 10 61 25 68 34 19 26 15 90 -8 113 -26 26
-110 27 -165 1z"/>
<path d="M2406 3123 c-38 -21 -95 -62 -127 -93 -71 -67 -78 -103 -30 -151 44
-43 81 -39 139 15 26 25 77 62 112 84 36 21 71 50 79 64 28 49 -15 118 -73
118 -17 0 -62 -17 -100 -37z"/>
<path d="M2109 2724 c-22 -23 -24 -36 -28 -137 -4 -132 8 -193 58 -302 63
-135 188 -265 253 -265 35 0 88 48 88 80 0 32 -15 54 -75 111 -116 110 -157
212 -154 383 2 108 2 110 -25 133 -37 32 -85 31 -117 -3z"/>
<path d="M752 2459 c-110 -43 -192 -163 -192 -284 0 -69 22 -95 80 -95 51 0
76 25 85 83 13 87 65 139 152 152 58 9 83 34 83 85 0 59 -25 80 -97 79 -33 0
-81 -9 -111 -20z"/>
<path d="M4215 1501 c-83 -38 -135 -120 -135 -211 0 -63 23 -90 78 -90 51 0
68 15 89 80 18 54 19 55 73 73 30 10 61 25 68 34 19 26 15 90 -8 113 -26 26
-110 27 -165 1z"/>
<path d="M2135 1021 c-83 -38 -135 -120 -135 -211 0 -63 23 -90 78 -90 51 0
68 15 89 80 18 54 19 55 73 73 30 10 61 25 68 34 19 26 15 90 -8 113 -26 26
-110 27 -165 1z"/>
</g>
</svg>
