<?xml version="1.0" standalone="no"?>
<!DOCTYPE svg PUBLIC "-//W3C//DTD SVG 20010904//EN"
 "http://www.w3.org/TR/2001/REC-SVG-20010904/DTD/svg10.dtd">
<svg version="1.0" xmlns="http://www.w3.org/2000/svg"
 width="512.000000pt" height="512.000000pt" viewBox="0 0 512.000000 512.000000"
 preserveAspectRatio="xMidYMid meet">
<metadata>
Created by potrace 1.16, written by Peter Selinger 2001-2019
</metadata>
<g transform="translate(0.000000,512.000000) scale(0.100000,-0.100000)"
fill="#000000" stroke="none">
<path d="M3597 5024 c-215 -52 -411 -249 -462 -465 -19 -84 -19 -245 1 -322
18 -69 69 -174 113 -232 l30 -40 -86 -87 -86 -87 -46 23 c-71 36 -197 75 -296
92 -137 24 -379 15 -508 -19 -497 -131 -860 -563 -895 -1064 -15 -209 19 -419
92 -578 l34 -73 -188 -187 -188 -188 -37 23 c-117 72 -215 100 -359 100 -155
0 -280 -42 -399 -136 -104 -81 -192 -219 -222 -346 -19 -81 -19 -235 0 -317
61 -259 326 -480 576 -481 l46 0 13 -63 c48 -224 248 -429 471 -482 82 -19
236 -19 318 0 219 52 414 247 466 466 19 82 19 236 0 317 -17 71 -62 166 -111
233 l-33 45 159 159 159 159 3 -554 3 -555 29 -60 c38 -77 114 -153 191 -191
56 -27 68 -29 175 -29 107 0 119 2 175 29 77 38 153 114 191 191 l29 60 3 611
3 612 26 7 c57 14 214 100 295 160 274 206 451 524 476 855 8 114 -1 282 -21
367 l-14 61 142 142 141 141 85 -45 c104 -56 186 -76 309 -76 183 0 331 60
455 185 125 124 185 272 185 455 0 121 -20 202 -72 304 -98 189 -324 336 -516
336 l-49 0 -13 63 c-48 224 -248 429 -471 482 -80 18 -244 18 -322 -1z m294
-170 c139 -40 266 -160 314 -294 9 -25 20 -81 25 -125 13 -112 28 -124 153
-124 144 0 240 -37 339 -129 157 -147 196 -390 90 -572 -132 -228 -420 -308
-648 -179 -28 15 -59 38 -70 50 -10 11 -32 28 -48 36 -56 29 -80 14 -241 -147
l-149 -149 -36 67 c-70 133 -190 278 -310 375 l-45 36 113 114 c102 104 112
117 112 151 0 31 -9 46 -58 99 -71 76 -105 132 -128 212 -31 109 -17 242 38
349 27 53 122 152 176 183 103 61 259 80 373 47z m-1130 -1119 c62 -12 193
-57 252 -87 269 -134 451 -353 544 -654 25 -83 27 -101 27 -274 0 -173 -2
-191 -27 -275 -190 -623 -853 -928 -1433 -660 -269 124 -469 360 -561 660 -25
84 -27 102 -27 275 0 173 2 191 27 274 112 363 367 617 723 721 133 39 339 48
475 20z m-1121 -1791 c90 -110 261 -246 378 -298 l43 -19 -216 -217 c-203
-204 -215 -218 -215 -253 0 -32 9 -47 58 -100 103 -111 142 -203 142 -337 0
-132 -39 -229 -129 -323 -96 -101 -202 -147 -340 -147 -129 0 -229 39 -323
128 -90 84 -133 173 -148 307 -13 112 -29 125 -149 124 -93 -1 -173 16 -245
53 -56 29 -151 122 -185 182 -82 145 -81 336 2 478 31 54 130 149 183 176 170
87 391 65 522 -52 101 -90 105 -88 352 159 113 113 207 205 211 205 3 0 30
-30 59 -66z m920 -419 c91 0 182 3 203 7 l38 7 -3 -552 c-3 -506 -4 -555 -21
-592 -86 -191 -342 -194 -431 -5 -20 44 -21 60 -24 597 l-3 552 38 -7 c21 -4
112 -7 203 -7z"/>
<path d="M2355 3581 c-316 -83 -539 -291 -641 -601 -26 -79 -28 -96 -29 -255
0 -138 4 -182 19 -235 76 -261 251 -467 490 -575 135 -61 183 -70 371 -70 159
1 176 3 255 29 316 104 535 343 606 662 21 95 15 326 -11 419 -24 88 -96 230
-158 310 -105 137 -295 265 -462 311 -94 25 -350 29 -440 5z m349 -162 c237
-46 448 -235 534 -478 24 -69 27 -89 27 -221 0 -132 -3 -152 -27 -221 -15 -42
-44 -105 -64 -140 -48 -82 -171 -205 -253 -253 -409 -238 -923 -25 -1051 435
-24 90 -27 244 -5 337 89 377 458 615 839 541z"/>
<path d="M2685 2770 c-159 -181 -296 -327 -302 -325 -7 3 -67 45 -133 95 -65
49 -121 90 -123 90 -5 0 -97 -127 -97 -134 0 -3 75 -62 167 -131 146 -110 171
-125 205 -125 27 0 46 7 61 23 65 66 632 710 635 721 2 10 -109 117 -120 116
-2 -1 -133 -149 -293 -330z"/>
</g>
</svg>
