<?xml version="1.0" standalone="no"?>
<!DOCTYPE svg PUBLIC "-//W3C//DTD SVG 20010904//EN"
 "http://www.w3.org/TR/2001/REC-SVG-20010904/DTD/svg10.dtd">
<svg version="1.0" xmlns="http://www.w3.org/2000/svg"
 width="64.000000pt" height="64.000000pt" viewBox="0 0 64.000000 64.000000"
 preserveAspectRatio="xMidYMid meet">
<metadata>
Created by potrace 1.16, written by Peter Selinger 2001-2019
</metadata>
<g transform="translate(0.000000,64.000000) scale(0.100000,-0.100000)"
fill="#000000" stroke="none">
<path d="M222 595 c-16 -12 -27 -13 -41 -5 -11 5 -30 10 -44 10 -27 0 -67 -38
-67 -63 0 -9 -7 -17 -15 -17 -29 0 -50 -89 -25 -105 7 -4 7 -12 0 -25 -15 -28
-12 -55 10 -83 11 -14 20 -37 20 -52 0 -18 9 -31 30 -43 21 -12 30 -25 30 -43
0 -25 16 -49 32 -49 5 0 13 11 18 24 6 16 19 25 42 29 42 6 48 2 48 -33 0 -16
7 -35 15 -44 8 -8 15 -21 15 -29 0 -20 27 -40 45 -33 8 3 15 17 15 31 0 34 43
35 66 1 19 -30 74 -50 114 -41 69 15 104 112 60 168 -15 18 -20 40 -20 80 0
31 -5 59 -10 62 -7 4 -7 12 0 25 12 23 13 77 1 84 -5 3 -6 25 -4 50 7 55 -19
86 -71 86 -19 0 -37 4 -40 9 -10 16 -60 19 -92 6 -25 -10 -34 -10 -49 1 -25
18 -55 18 -83 -1z m80 -35 c7 -11 16 -20 20 -20 5 0 17 9 28 20 25 25 51 25
83 -1 19 -14 31 -17 44 -11 42 21 71 -20 52 -73 -12 -31 -11 -36 7 -49 18 -14
18 -16 2 -46 -15 -25 -16 -36 -6 -53 6 -12 12 -39 12 -59 1 -35 0 -36 -26 -31
-59 12 -118 -36 -118 -97 0 -34 -14 -38 -48 -14 -24 16 -24 16 -24 -36 1 -20
-2 -26 -5 -15 -2 11 -12 26 -21 33 -19 14 -20 75 -2 97 15 18 42 19 58 3 9 -9
15 -9 24 0 7 7 19 12 28 12 29 0 60 54 54 92 -4 24 -1 39 10 51 18 17 21 37 7
37 -16 0 -23 38 -10 61 11 21 10 22 -20 16 -24 -5 -35 -2 -50 14 l-20 21 -27
-21 c-35 -27 -50 -27 -70 4 l-16 25 -25 -26 c-16 -18 -29 -24 -41 -19 -47 20
-53 19 -46 -9 5 -22 1 -29 -25 -43 -36 -21 -38 -29 -12 -42 25 -14 33 -38 21
-60 -7 -14 -4 -23 11 -37 14 -12 18 -25 14 -39 -4 -11 -10 -36 -15 -55 l-8
-35 -1 38 c-1 29 -5 37 -20 37 -26 0 -44 25 -36 50 5 16 1 26 -14 36 -24 17
-27 45 -9 74 10 15 9 23 -7 39 -15 18 -16 25 -7 46 7 14 20 25 31 25 14 0 21
8 23 26 4 39 29 51 74 35 31 -11 38 -11 52 3 22 22 59 20 74 -4z m241 -357 c2
-5 -9 -26 -24 -47 -16 -21 -29 -34 -29 -27 0 6 -7 11 -15 11 -18 0 -18 -5 -5
-31 17 -30 35 -23 68 28 l31 47 10 -27 c29 -75 -69 -141 -127 -87 -40 38 -37
93 7 127 18 14 77 17 84 6z"/>
</g>
</svg>
