<?xml version="1.0" standalone="no"?>
<!DOCTYPE svg PUBLIC "-//W3C//DTD SVG 20010904//EN"
 "http://www.w3.org/TR/2001/REC-SVG-20010904/DTD/svg10.dtd">
<svg version="1.0" xmlns="http://www.w3.org/2000/svg"
 width="512.000000pt" height="512.000000pt" viewBox="0 0 512.000000 512.000000"
 preserveAspectRatio="xMidYMid meet">
<metadata>
Created by potrace 1.16, written by Peter Selinger 2001-2019
</metadata>
<g transform="translate(0.000000,512.000000) scale(0.100000,-0.100000)"
fill="#000000" stroke="none">
<path d="M1530 4946 c-269 -78 -443 -303 -444 -576 -1 -178 52 -308 174 -431
317 -319 857 -191 997 236 35 108 37 256 5 360 -56 182 -199 333 -375 395 -77
28 -285 37 -357 16z"/>
<path d="M3280 4944 c-129 -35 -244 -111 -317 -209 -94 -125 -127 -221 -127
-375 0 -91 4 -117 30 -190 37 -107 88 -184 167 -256 237 -214 600 -203 827 25
122 123 175 253 174 431 -1 255 -156 472 -400 562 -78 29 -271 35 -354 12z"/>
<path d="M470 3801 c-79 -25 -117 -47 -173 -100 -97 -90 -137 -184 -137 -321
0 -180 85 -317 246 -396 164 -82 370 -47 500 83 242 241 130 651 -201 739 -68
19 -169 16 -235 -5z"/>
<path d="M4410 3806 c-169 -47 -293 -186 -322 -359 -30 -182 71 -380 234 -459
245 -120 532 -4 619 250 24 69 25 197 3 273 -29 101 -120 211 -212 258 -95 48
-227 63 -322 37z"/>
<path d="M2309 3535 c-377 -61 -681 -216 -945 -479 -181 -182 -289 -343 -377
-561 -89 -223 -122 -394 -121 -640 0 -193 9 -267 54 -440 163 -621 656 -1086
1303 -1227 89 -20 131 -22 337 -22 206 0 248 2 337 22 507 111 917 415 1161
862 82 151 148 349 183 550 19 108 17 411 -4 530 -64 370 -233 689 -504 951
-229 221 -512 369 -838 439 -131 28 -455 37 -586 15z m476 -260 c147 -24 262
-62 410 -135 167 -83 278 -164 402 -294 193 -202 324 -454 380 -733 26 -132
24 -404 -5 -540 -62 -290 -185 -516 -397 -729 -282 -284 -619 -425 -1015 -426
-375 -1 -723 140 -994 402 -218 211 -354 456 -418 753 -31 145 -31 419 0 559
79 357 272 663 551 874 165 124 411 230 626 268 107 19 347 20 460 1z"/>
<path d="M2325 3143 c-183 -33 -381 -117 -538 -231 -97 -70 -247 -224 -310
-320 -265 -397 -299 -894 -90 -1320 147 -301 427 -546 747 -657 263 -90 589
-90 852 0 439 151 760 518 860 985 23 105 25 368 5 480 -30 170 -110 365 -209
514 -64 95 -213 249 -309 318 -164 118 -362 202 -553 233 -118 19 -346 18
-455 -2z m516 -503 c18 -10 19 -24 19 -245 l0 -235 226 0 c136 0 233 -4 245
-10 18 -10 19 -24 19 -295 0 -271 -1 -285 -19 -295 -12 -6 -109 -10 -245 -10
l-226 0 0 -235 c0 -221 -1 -235 -19 -245 -26 -14 -536 -14 -562 0 -18 10 -19
24 -19 245 l0 235 -226 0 c-136 0 -233 4 -245 10 -18 10 -19 24 -19 295 0 271
1 285 19 295 12 6 109 10 245 10 l226 0 0 235 c0 212 2 235 18 244 23 14 537
14 563 1z"/>
</g>
</svg>
