<?xml version="1.0" standalone="no"?>
<!DOCTYPE svg PUBLIC "-//W3C//DTD SVG 20010904//EN"
 "http://www.w3.org/TR/2001/REC-SVG-20010904/DTD/svg10.dtd">
<svg version="1.0" xmlns="http://www.w3.org/2000/svg"
 width="64.000000pt" height="64.000000pt" viewBox="0 0 64.000000 64.000000"
 preserveAspectRatio="xMidYMid meet">
<metadata>
Created by potrace 1.16, written by Peter Selinger 2001-2019
</metadata>
<g transform="translate(0.000000,64.000000) scale(0.100000,-0.100000)"
fill="#000000" stroke="none">
<path d="M348 473 c-61 -116 -88 -199 -88 -271 0 -65 13 -86 52 -80 22 3 23 6
20 88 -4 92 17 179 64 272 27 53 30 78 11 78 -8 0 -34 -39 -59 -87z"/>
<path d="M83 243 c-77 -7 -45 -23 47 -23 l90 0 0 -44 c0 -63 29 -96 84 -96 60
0 79 23 75 89 l-4 51 113 0 c68 0 112 4 112 10 0 6 -3 10 -7 11 -5 0 -64 3
-132 5 l-123 5 7 -56 c7 -62 -3 -85 -40 -85 -33 0 -53 30 -57 85 l-3 50 -60 1
c-33 0 -79 -1 -102 -3z"/>
</g>
</svg>
