<?xml version="1.0" standalone="no"?>
<!DOCTYPE svg PUBLIC "-//W3C//DTD SVG 20010904//EN"
 "http://www.w3.org/TR/2001/REC-SVG-20010904/DTD/svg10.dtd">
<svg version="1.0" xmlns="http://www.w3.org/2000/svg"
 width="512.000000pt" height="512.000000pt" viewBox="0 0 512.000000 512.000000"
 preserveAspectRatio="xMidYMid meet">
<metadata>
Created by potrace 1.16, written by Peter Selinger 2001-2019
</metadata>
<g transform="translate(0.000000,512.000000) scale(0.100000,-0.100000)"
fill="#000000" stroke="none">
<path d="M1200 4784 c-14 -2 -59 -9 -100 -15 -161 -23 -359 -104 -518 -211
-98 -65 -284 -251 -349 -348 -108 -161 -189 -362 -218 -540 -20 -124 -20 -371
1 -509 26 -177 89 -399 159 -556 l24 -55 733 0 733 0 110 327 c60 180 117 344
127 365 22 49 70 78 130 78 41 0 54 -5 86 -34 36 -33 43 -51 147 -370 l109
-336 125 0 c234 -1 242 -7 321 -262 30 -98 58 -174 61 -170 4 4 75 241 157
527 145 500 152 521 186 552 49 45 94 51 153 22 31 -16 53 -36 64 -59 10 -19
57 -185 105 -368 l87 -332 651 2 651 3 42 105 c48 120 84 239 115 384 20 89
22 130 22 351 0 223 -2 261 -22 355 -67 307 -185 533 -381 731 -185 186 -387
294 -649 346 -122 24 -395 24 -514 0 -372 -75 -703 -310 -893 -635 -66 -113
-112 -119 -171 -24 -110 176 -195 277 -315 376 -239 196 -495 292 -799 301
-80 2 -156 2 -170 -1z"/>
<path d="M1966 2543 c-71 -210 -80 -228 -125 -255 l-36 -23 -727 -5 -728 -5
88 -130 c294 -438 725 -870 1272 -1275 234 -173 685 -464 784 -505 84 -35 122
-21 428 161 307 183 659 433 943 670 181 150 519 492 649 654 102 129 239 321
252 354 6 14 -58 16 -637 16 -621 0 -645 1 -676 20 -48 29 -61 56 -100 204
-20 75 -39 136 -42 136 -4 0 -71 -224 -151 -497 -138 -476 -145 -500 -180
-535 -46 -47 -96 -58 -151 -32 -22 9 -48 29 -59 43 -13 20 -168 500 -236 734
-5 15 -21 17 -157 17 -216 0 -211 -4 -292 248 -31 94 -57 172 -59 172 -2 0
-29 -75 -60 -167z"/>
</g>
</svg>
