<?xml version="1.0" standalone="no"?>
<!DOCTYPE svg PUBLIC "-//W3C//DTD SVG 20010904//EN"
 "http://www.w3.org/TR/2001/REC-SVG-20010904/DTD/svg10.dtd">
<svg version="1.0" xmlns="http://www.w3.org/2000/svg"
 width="512.000000pt" height="512.000000pt" viewBox="0 0 512.000000 512.000000"
 preserveAspectRatio="xMidYMid meet">
<metadata>
Created by potrace 1.16, written by Peter Selinger 2001-2019
</metadata>
<g transform="translate(0.000000,512.000000) scale(0.100000,-0.100000)"
fill="#000000" stroke="none">
<path d="M2542 5018 c-5 -7 -12 -47 -14 -88 -17 -261 -301 -745 -787 -1339
-403 -492 -644 -918 -750 -1324 -45 -170 -55 -249 -53 -400 2 -242 27 -403 92
-598 141 -424 457 -790 855 -988 567 -283 1218 -244 1741 104 182 121 382 325
497 508 130 205 227 476 257 717 13 109 13 329 0 461 -23 223 -89 493 -186
752 -61 165 -75 191 -101 195 -43 6 -45 -27 -7 -119 57 -137 140 -395 168
-521 50 -224 60 -310 60 -538 1 -185 -2 -231 -22 -327 -142 -704 -696 -1230
-1403 -1334 -132 -19 -364 -15 -503 10 -679 120 -1212 646 -1346 1327 -28 140
-38 406 -21 525 64 435 310 921 728 1438 516 638 757 1024 837 1343 l23 91
180 -179 c349 -348 620 -676 873 -1054 101 -151 218 -347 276 -461 35 -71 48
-82 77 -67 27 14 21 44 -30 137 -271 499 -623 966 -1078 1430 -188 192 -318
311 -339 311 -7 0 -18 -6 -24 -12z"/>
<path d="M1960 3191 c-99 -52 -120 -256 -37 -345 72 -76 215 -67 268 17 l20
32 -6 -33 c-8 -37 7 -62 36 -62 25 0 28 7 53 141 l21 120 31 -53 c22 -40 36
-54 56 -56 22 -3 30 5 56 49 l30 52 17 -99 c22 -132 28 -148 52 -152 44 -7 46
16 14 200 -17 96 -31 177 -31 181 0 3 -9 11 -21 17 -28 15 -43 1 -83 -79 l-33
-64 -39 71 c-42 76 -55 88 -84 72 -13 -7 -21 -31 -31 -95 -7 -52 -16 -81 -21
-73 -4 7 -8 22 -8 32 0 40 -40 102 -79 124 -50 28 -132 30 -181 3z m140 -61
c63 -34 72 -194 13 -240 -37 -29 -103 -27 -132 4 -51 54 -47 184 6 226 28 22
83 26 113 10z"/>
<path d="M2628 3199 c-16 -9 -18 -30 -18 -198 0 -163 2 -190 16 -195 24 -9
227 -7 242 3 8 4 12 19 10 32 -3 23 -6 24 -100 27 l-98 3 0 49 0 49 56 3 c40
2 60 8 67 20 19 29 -9 48 -69 48 l-54 0 0 50 0 49 97 3 c87 3 98 5 101 22 7
35 -25 46 -132 46 -56 0 -109 -5 -118 -11z"/>
<path d="M2955 3196 c-67 -30 -105 -101 -105 -196 0 -92 31 -155 95 -188 44
-23 145 -20 188 5 33 20 34 20 46 1 7 -12 21 -18 34 -16 16 2 29 22 56 86 l35
82 48 0 c47 0 49 -1 64 -40 39 -96 58 -125 84 -125 18 0 26 6 28 22 3 23 -131
348 -153 372 -30 31 -51 3 -128 -177 l-76 -177 -1 91 c0 56 -4 94 -12 102 -14
14 -146 16 -166 3 -8 -4 -12 -19 -10 -32 3 -22 8 -24 61 -27 l58 -3 -3 -52 -3
-52 -47 -3 c-26 -2 -57 2 -68 8 -55 29 -77 127 -44 196 24 50 62 66 147 62 71
-3 72 -3 72 22 0 16 -8 29 -25 37 -33 17 -137 16 -175 -1z"/>
<path d="M4095 2586 c-18 -13 -18 -17 3 -112 71 -315 78 -637 21 -934 -71
-365 -250 -678 -515 -899 -178 -147 -355 -240 -559 -291 -152 -39 -260 -50
-472 -50 l-183 0 0 -30 c0 -23 5 -31 25 -36 14 -4 126 -4 248 -1 167 4 246 10
318 25 303 63 544 195 769 421 283 284 426 609 471 1071 20 214 -1 523 -52
743 -22 94 -41 117 -74 93z"/>
<path d="M2091 2536 c-8 -9 -11 -70 -9 -197 l3 -184 294 -5 293 -5 -166 -159
-167 -158 3 -147 3 -146 210 -5 c199 -5 213 -6 259 -30 70 -35 91 -68 91 -140
0 -107 -70 -161 -217 -168 -150 -7 -288 36 -425 134 -40 28 -70 43 -81 40 -21
-7 -194 -338 -187 -357 6 -15 96 -75 160 -107 190 -94 471 -141 680 -113 295
40 504 205 560 443 69 295 -92 543 -400 616 l-78 18 207 190 206 189 -2 150
-3 150 -611 3 c-512 2 -613 0 -623 -12z m1169 -155 l0 -99 -227 -209 c-126
-115 -229 -217 -231 -227 -6 -28 6 -34 118 -56 136 -27 234 -73 303 -142 211
-212 126 -576 -166 -718 -121 -58 -197 -74 -362 -74 -149 0 -246 15 -373 58
-73 25 -227 100 -236 115 -6 9 110 241 121 241 2 0 24 -14 49 -31 110 -75 258
-119 404 -119 110 0 173 15 233 57 105 73 118 254 24 345 -64 62 -134 78 -338
78 l-169 0 0 93 0 94 142 139 c78 76 166 162 195 190 57 55 61 64 37 88 -13
14 -57 16 -325 16 l-309 0 0 130 0 130 555 0 555 0 0 -99z"/>
<path d="M800 2345 c-15 -39 -47 -208 -61 -318 -17 -145 -7 -444 21 -572 28
-129 64 -237 109 -328 30 -59 41 -73 63 -75 43 -5 43 25 -1 119 -133 283 -166
670 -89 1034 30 142 30 159 -4 163 -22 3 -30 -2 -38 -23z"/>
</g>
</svg>
