<?xml version="1.0" standalone="no"?>
<!DOCTYPE svg PUBLIC "-//W3C//DTD SVG 20010904//EN"
 "http://www.w3.org/TR/2001/REC-SVG-20010904/DTD/svg10.dtd">
<svg version="1.0" xmlns="http://www.w3.org/2000/svg"
 width="512.000000pt" height="512.000000pt" viewBox="0 0 512.000000 512.000000"
 preserveAspectRatio="xMidYMid meet">
<metadata>
Created by potrace 1.16, written by Peter Selinger 2001-2019
</metadata>
<g transform="translate(0.000000,512.000000) scale(0.100000,-0.100000)"
fill="#000000" stroke="none">
<path d="M657 5102 c-8 -9 -34 -64 -56 -121 -77 -196 -111 -232 -293 -300
-122 -46 -158 -74 -158 -121 0 -47 36 -74 165 -124 179 -68 209 -99 286 -297
49 -127 59 -139 114 -139 56 0 73 21 120 145 71 190 106 224 309 302 111 42
136 63 136 113 0 50 -25 71 -136 113 -196 75 -238 115 -304 289 -23 62 -52
123 -63 136 -26 28 -96 31 -120 4z m82 -340 c29 -56 102 -133 160 -167 28 -16
51 -32 51 -35 0 -3 -23 -18 -51 -35 -59 -34 -131 -111 -161 -169 l-20 -40 -19
36 c-28 55 -122 152 -174 179 -25 13 -45 26 -45 29 0 3 20 16 45 29 52 27 149
127 173 178 9 18 17 33 19 33 1 0 11 -17 22 -38z"/>
<path d="M2317 4908 c-21 -17 -1408 -2417 -1462 -2533 -51 -108 -96 -245 -127
-386 -19 -90 -22 -133 -22 -324 0 -191 3 -234 22 -325 75 -344 217 -607 461
-851 199 -199 381 -313 640 -403 197 -69 277 -80 541 -80 262 0 330 10 535 78
674 226 1136 871 1135 1588 0 238 -67 523 -170 728 -61 121 -1418 2471 -1443
2498 -23 25 -82 30 -110 10z m714 -1388 c354 -613 663 -1153 686 -1200 52
-106 95 -233 124 -370 32 -150 32 -418 0 -570 -63 -300 -205 -563 -416 -774
-224 -224 -499 -366 -820 -421 -106 -18 -338 -21 -445 -5 -324 49 -607 190
-841 420 -109 108 -184 205 -258 335 -242 424 -255 963 -35 1397 27 52 339
597 694 1211 490 848 648 1113 656 1104 6 -7 301 -514 655 -1127z"/>
<path d="M2975 3105 c-41 -40 -33 -71 61 -235 47 -83 95 -157 107 -165 54 -38
127 2 127 70 0 27 -21 72 -82 178 -46 78 -91 150 -100 159 -27 27 -84 23 -113
-7z"/>
<path d="M3297 2568 c-26 -20 -38 -64 -26 -95 5 -15 44 -87 85 -160 86 -150
126 -241 153 -352 43 -167 50 -304 26 -461 -40 -263 -141 -462 -334 -664 -84
-87 -101 -110 -101 -136 0 -43 14 -65 49 -80 48 -19 77 -5 165 83 194 192 321
424 378 690 26 124 31 377 9 497 -18 103 -56 231 -93 315 -38 88 -185 346
-206 363 -9 6 -32 12 -52 12 -20 0 -44 -6 -53 -12z"/>
<path d="M1555 2258 c-45 -26 -44 -18 -45 -556 l0 -513 25 -24 c15 -15 36 -25
54 -25 84 0 91 22 91 275 l0 205 180 0 c223 0 265 12 351 99 73 74 93 131 87
245 -7 132 -65 218 -188 275 -54 25 -60 26 -295 29 -172 2 -246 -1 -260 -10z
m478 -172 c18 -7 45 -28 61 -45 24 -25 30 -42 34 -88 3 -48 0 -64 -20 -92 -43
-63 -72 -71 -260 -71 l-168 0 0 155 0 155 160 0 c114 0 170 -4 193 -14z"/>
<path d="M2475 2259 c-46 -26 -45 -16 -45 -556 l0 -514 25 -24 c27 -27 79 -33
106 -12 35 27 39 53 39 261 l0 206 230 0 230 0 0 -215 c0 -216 0 -216 25 -240
27 -27 79 -33 106 -12 38 29 39 43 39 557 l0 502 -29 29 c-16 16 -39 29 -51
29 -29 0 -76 -26 -84 -45 -3 -9 -6 -111 -6 -226 l0 -209 -229 0 -230 0 -3 215
c-3 199 -4 216 -23 235 -25 24 -74 34 -100 19z"/>
<path d="M4173 4435 c-13 -9 -44 -74 -83 -172 -112 -281 -147 -317 -421 -423
-88 -34 -162 -69 -171 -81 -10 -12 -18 -36 -18 -54 0 -18 8 -42 18 -53 9 -12
76 -43 148 -71 168 -63 225 -93 279 -142 64 -59 96 -116 165 -289 34 -85 67
-161 74 -168 7 -7 28 -15 47 -18 58 -10 80 20 149 194 104 266 146 308 413
413 191 75 221 104 183 178 -12 23 -39 37 -153 81 -184 71 -227 93 -288 151
-62 58 -95 117 -165 298 -29 73 -61 142 -71 152 -23 23 -76 25 -106 4z m152
-500 c57 -81 136 -144 236 -193 l76 -36 -90 -44 c-127 -62 -218 -153 -281
-283 l-46 -93 -11 33 c-36 102 -116 212 -203 278 -62 46 -169 103 -196 103 -8
0 27 21 79 45 130 62 229 161 292 290 l44 91 26 -63 c15 -34 48 -92 74 -128z"/>
</g>
</svg>
