<?xml version="1.0" standalone="no"?>
<!DOCTYPE svg PUBLIC "-//W3C//DTD SVG 20010904//EN"
 "http://www.w3.org/TR/2001/REC-SVG-20010904/DTD/svg10.dtd">
<svg version="1.0" xmlns="http://www.w3.org/2000/svg"
 width="512.000000pt" height="512.000000pt" viewBox="0 0 512.000000 512.000000"
 preserveAspectRatio="xMidYMid meet">
<metadata>
Created by potrace 1.16, written by Peter Selinger 2001-2019
</metadata>
<g transform="translate(0.000000,512.000000) scale(0.100000,-0.100000)"
fill="#000000" stroke="none">
<path d="M1705 5030 c-176 -49 -347 -102 -380 -118 -219 -107 -352 -357 -316
-591 13 -82 76 -312 96 -351 32 -61 143 -130 211 -130 6 0 22 -37 34 -82 27
-101 42 -125 89 -139 54 -16 106 8 127 58 15 35 15 43 -6 121 -12 46 -18 87
-14 91 16 14 137 42 144 34 4 -4 15 -39 25 -78 23 -88 38 -111 81 -125 41 -14
71 -8 107 20 38 30 42 72 17 163 -12 43 -19 81 -16 84 11 11 140 43 147 35 3
-4 12 -29 19 -57 25 -96 40 -123 77 -140 65 -31 135 3 149 71 4 19 -3 61 -16
108 -12 43 -20 80 -17 82 11 11 142 43 148 36 4 -4 16 -41 28 -82 24 -88 51
-119 109 -127 37 -5 45 -2 77 30 42 42 44 71 15 167 -11 36 -20 70 -20 75 1 6
17 22 38 36 21 14 50 49 67 80 41 77 39 144 -13 319 -52 180 -88 249 -176 336
-116 116 -238 164 -411 163 -94 0 -118 -5 -420 -89z m550 -141 c71 -26 143
-84 182 -145 30 -47 103 -274 103 -320 0 -12 -6 -26 -13 -32 -10 -8 -721 -209
-1169 -330 -26 -7 -41 -7 -52 1 -9 7 -32 70 -52 141 -43 155 -46 233 -14 319
26 70 108 163 172 194 33 17 461 142 633 186 52 13 156 6 210 -14z"/>
<path d="M1627 4689 c-92 -22 -193 -95 -227 -164 -27 -56 -20 -94 23 -131 46
-39 105 -30 160 24 43 42 100 72 137 72 11 0 34 13 52 29 28 25 33 36 33 76 0
40 -5 51 -33 76 -35 31 -70 36 -145 18z"/>
<path d="M3804 4841 c-108 -49 -140 -198 -61 -288 39 -44 82 -63 142 -63 166
0 244 202 122 317 -57 54 -131 67 -203 34z"/>
<path d="M3570 4047 c-116 -41 -200 -103 -376 -278 l-122 -120 -133 -4 c-304
-9 -580 -101 -809 -269 l-55 -40 -275 -1 c-226 -1 -289 -4 -355 -19 -207 -46
-310 -143 -333 -314 -25 -179 47 -323 325 -651 l29 -34 -13 -66 c-8 -36 -17
-151 -20 -256 -6 -208 7 -334 50 -496 l23 -85 -56 13 c-123 29 -249 13 -375
-47 -141 -68 -249 -188 -315 -352 -56 -142 -35 -265 62 -354 86 -79 217 -96
323 -41 65 33 95 66 141 157 31 60 39 70 42 51 2 -13 -1 -51 -7 -85 -25 -145
-6 -291 55 -416 28 -57 57 -94 118 -155 82 -81 137 -115 255 -157 73 -26 270
-37 308 -17 43 23 47 43 44 224 -3 226 26 394 99 557 l19 45 99 -23 c301 -67
741 -55 1033 30 172 50 353 134 531 246 l93 58 24 -21 c30 -28 99 -124 144
-202 51 -87 103 -219 134 -337 23 -92 26 -124 29 -308 1 -113 3 -211 3 -218 1
-7 12 -24 26 -37 36 -37 106 -35 145 3 37 38 44 96 37 316 -6 184 -28 306 -82
456 -54 149 -154 326 -249 439 l-36 43 103 107 c152 157 246 307 302 481 37
114 46 308 20 427 -56 250 -191 506 -403 763 -29 35 -29 37 -35 195 -14 408
-126 703 -299 789 -70 35 -174 36 -268 3z m194 -208 c14 -11 41 -53 60 -92 67
-141 105 -355 106 -597 l0 -145 76 -85 c210 -236 360 -547 372 -767 12 -241
-116 -482 -378 -711 -169 -148 -449 -309 -654 -376 -438 -144 -1015 -103
-1354 96 -71 41 -199 167 -237 232 -119 205 -151 616 -71 922 l14 54 -120 147
c-203 249 -258 338 -258 421 0 96 41 138 165 169 59 15 116 18 365 18 270 0
298 2 324 18 15 11 32 15 36 10 4 -4 28 -71 54 -149 53 -161 73 -189 136 -189
50 0 92 31 104 76 7 28 -1 63 -48 209 -31 97 -56 180 -56 186 0 7 26 23 58 36
l57 25 114 -339 c106 -317 115 -341 145 -359 61 -39 144 -5 162 66 4 17 -30
131 -105 357 -60 183 -109 333 -107 335 9 9 120 23 126 16 4 -4 33 -88 64
-187 66 -206 80 -226 151 -226 38 0 52 5 76 29 40 40 38 71 -16 239 -25 77
-45 142 -45 146 0 3 12 6 26 6 41 0 62 16 219 169 242 237 361 302 439 240z
m-2292 -2646 c80 -38 143 -101 180 -179 44 -93 51 -159 32 -287 -19 -132 -9
-196 40 -260 31 -41 115 -96 147 -97 14 0 17 -12 15 -78 l-1 -79 -40 9 c-215
47 -350 252 -317 482 27 187 5 276 -84 335 -131 86 -269 30 -344 -142 -39 -89
-87 -111 -135 -62 -34 33 -31 65 11 152 59 118 160 206 268 234 61 16 160 4
228 -28z m536 -307 c-18 -34 -75 -209 -83 -253 -4 -26 -12 -43 -20 -43 -20 0
-22 26 -6 130 10 68 11 117 5 171 l-9 76 62 -30 c56 -28 61 -33 51 -51z"/>
<path d="M3620 3671 c-73 -23 -185 -103 -236 -169 -27 -36 -34 -54 -34 -90 0
-38 5 -49 35 -78 59 -56 214 -121 310 -131 89 -9 125 42 125 177 0 76 -22 185
-45 230 -29 56 -90 80 -155 61z m50 -157 c6 -15 13 -60 17 -100 5 -65 4 -74
-11 -74 -20 0 -131 44 -164 66 -23 15 -23 16 -5 36 20 23 131 98 145 98 5 0
13 -12 18 -26z"/>
<path d="M1605 3007 c-80 -27 -115 -63 -115 -120 0 -48 32 -128 80 -200 58
-86 106 -127 159 -134 34 -5 43 -1 80 32 71 65 161 243 161 320 0 85 -41 108
-205 112 -80 2 -133 -2 -160 -10z m225 -129 c0 -18 -70 -156 -87 -170 -17 -14
-34 3 -83 87 -51 86 -46 92 88 94 57 1 82 -3 82 -11z"/>
<path d="M3702 2574 c-18 -12 -22 -25 -22 -65 0 -40 -5 -55 -25 -74 -43 -44
-84 -30 -138 49 -22 32 -68 35 -97 6 -25 -25 -25 -44 -1 -95 34 -74 102 -115
191 -115 117 0 200 87 200 210 0 47 -4 64 -20 80 -24 24 -57 26 -88 4z"/>
<path d="M3803 2166 c-83 -23 -158 -48 -167 -55 -38 -31 -8 -111 41 -111 33 0
327 81 340 94 6 6 15 23 18 38 5 21 1 33 -19 52 -14 15 -33 26 -43 25 -10 0
-86 -20 -170 -43z"/>
<path d="M2312 2184 c-18 -12 -22 -25 -22 -65 0 -60 -31 -99 -78 -99 -28 0
-72 35 -72 57 0 19 -37 43 -68 43 -69 0 -80 -87 -20 -156 92 -105 255 -98 332
14 24 33 31 56 34 107 4 58 2 66 -21 89 -30 30 -53 33 -85 10z"/>
<path d="M3032 2123 c-8 -3 -22 -25 -33 -50 -20 -46 -20 -46 -71 -11 -34 24
-73 23 -98 -2 -39 -39 -20 -89 50 -125 24 -12 28 -19 21 -33 -14 -25 -51 -57
-91 -77 -42 -21 -50 -32 -50 -67 0 -86 127 -74 212 20 20 22 41 49 47 60 10
20 11 20 53 -2 33 -16 61 -21 124 -21 96 0 124 16 124 71 0 47 -30 65 -95 58
-35 -4 -62 -1 -87 9 l-37 16 14 35 c19 46 19 91 -1 110 -15 16 -55 20 -82 9z"/>
<path d="M3861 1955 c-99 -27 -160 -50 -168 -61 -30 -41 -3 -104 45 -104 11 0
90 18 174 41 156 41 188 58 188 101 0 24 -44 68 -67 67 -10 0 -88 -20 -172
-44z"/>
<path d="M2188 1721 c-76 -21 -147 -46 -158 -56 -41 -37 -13 -105 43 -105 49
0 316 76 338 96 24 22 25 66 1 87 -27 24 -70 20 -224 -22z"/>
<path d="M2245 1510 c-170 -48 -203 -76 -159 -138 21 -30 52 -28 213 14 179
48 191 54 191 105 0 35 -29 59 -71 58 -19 0 -97 -18 -174 -39z"/>
<path d="M4792 3873 c-5 -10 -22 -55 -38 -100 l-28 -82 -88 -40 c-78 -35 -88
-43 -88 -66 0 -22 11 -30 88 -66 l89 -40 34 -97 c31 -88 36 -97 59 -97 23 0
28 9 60 98 l35 99 85 37 c74 32 85 41 88 64 3 26 -3 30 -86 68 l-89 41 -34 96
c-28 79 -38 98 -56 100 -13 2 -25 -4 -31 -15z"/>
<path d="M515 3605 c-51 -50 -17 -135 54 -135 71 0 108 57 77 118 -26 50 -91
58 -131 17z"/>
<path d="M360 2508 c-6 -13 -27 -72 -48 -133 l-38 -110 -122 -60 c-111 -54
-122 -62 -122 -86 0 -34 6 -39 120 -89 52 -23 102 -50 111 -59 9 -9 36 -71 59
-138 32 -91 48 -124 62 -129 31 -9 44 11 93 145 24 68 46 125 47 127 2 1 50
23 108 49 122 55 130 60 130 90 0 30 -11 38 -125 89 -54 24 -103 50 -110 58
-7 7 -32 67 -55 133 -23 66 -48 123 -54 127 -21 14 -47 8 -56 -14z"/>
<path d="M2627 550 l-27 -21 0 -243 c0 -272 3 -286 64 -286 64 0 66 8 66 281
0 262 -2 272 -50 284 -18 4 -34 0 -53 -15z"/>
<path d="M3700 563 c-38 -13 -40 -31 -40 -283 0 -227 2 -248 18 -263 27 -25
78 -22 96 5 13 19 16 62 16 264 l0 243 -26 20 c-27 21 -37 24 -64 14z"/>
</g>
</svg>
