<?xml version="1.0" standalone="no"?>
<!DOCTYPE svg PUBLIC "-//W3C//DTD SVG 20010904//EN"
 "http://www.w3.org/TR/2001/REC-SVG-20010904/DTD/svg10.dtd">
<svg version="1.0" xmlns="http://www.w3.org/2000/svg"
 width="512.000000pt" height="512.000000pt" viewBox="0 0 512.000000 512.000000"
 preserveAspectRatio="xMidYMid meet">
<metadata>
Created by potrace 1.16, written by Peter Selinger 2001-2019
</metadata>
<g transform="translate(0.000000,512.000000) scale(0.100000,-0.100000)"
fill="#000000" stroke="none">
<path d="M2429 5092 c-89 -46 -139 -146 -139 -277 0 -39 -3 -43 -40 -60 -50
-23 -94 -71 -110 -121 -17 -52 -7 -185 19 -253 11 -30 20 -55 18 -56 -31 -14
-81 -66 -101 -107 -21 -41 -26 -66 -26 -123 0 -141 42 -242 207 -498 179 -280
216 -374 211 -546 l-3 -102 -117 126 c-133 143 -164 196 -222 381 -121 382
-134 414 -217 507 -30 34 -71 66 -105 83 -48 23 -62 26 -117 20 l-62 -6 -33
54 c-42 71 -122 143 -175 157 -49 13 -119 6 -149 -15 -20 -14 -24 -13 -57 16
-119 105 -280 105 -372 0 -101 -114 -92 -252 22 -368 l50 -51 -10 -44 c-26
-113 36 -204 184 -271 l72 -32 1 -51 c0 -68 21 -114 72 -164 49 -47 159 -104
244 -126 32 -8 140 -26 241 -40 325 -45 408 -77 543 -209 77 -75 162 -174 162
-189 0 -4 -17 -7 -37 -7 -56 0 -201 -27 -301 -56 -199 -57 -359 -146 -496
-276 -142 -133 -226 -274 -278 -464 -17 -65 -21 -108 -22 -239 -1 -141 2 -169
22 -235 76 -242 218 -406 614 -712 337 -259 427 -344 493 -463 36 -64 51 -111
60 -188 8 -62 32 -87 85 -87 53 0 77 25 85 87 9 77 24 124 60 188 66 119 156
204 493 463 396 306 538 470 614 712 20 66 23 94 22 235 -1 178 -15 252 -77
395 -96 222 -301 416 -553 525 -136 59 -365 115 -466 115 -21 0 -38 3 -38 7 0
15 85 114 162 189 135 132 218 164 543 209 101 14 209 32 241 40 85 22 195 79
244 126 51 50 72 96 72 164 l1 51 72 32 c148 67 210 158 184 271 l-10 44 50
51 c114 116 123 254 22 368 -92 105 -253 105 -372 0 -33 -29 -37 -30 -57 -16
-30 21 -100 28 -149 15 -53 -14 -133 -86 -175 -157 l-33 -54 -62 6 c-55 6 -69
3 -117 -20 -34 -17 -75 -49 -105 -83 -83 -93 -96 -125 -217 -507 -58 -185 -89
-238 -222 -381 l-117 -126 -3 102 c-5 172 32 266 211 546 165 256 207 357 207
498 0 57 -5 82 -26 123 -20 41 -70 93 -101 107 -2 1 7 26 18 56 26 68 36 201
19 253 -16 50 -60 98 -110 121 -37 17 -40 21 -40 60 0 131 -50 231 -139 277
-45 24 -65 28 -131 28 -66 0 -86 -4 -131 -28z m205 -175 c18 -25 21 -43 22
-140 0 -62 1 -118 2 -125 3 -16 62 -42 99 -42 41 -1 63 -22 63 -62 0 -46 -26
-130 -61 -200 -16 -32 -29 -68 -29 -81 0 -41 35 -75 84 -82 27 -4 53 -16 67
-31 20 -21 21 -30 16 -90 -8 -82 -61 -195 -172 -364 l-75 -115 0 128 c0 148
-11 187 -59 206 -25 11 -37 11 -62 0 -48 -19 -59 -58 -59 -206 l0 -128 -75
115 c-111 169 -164 282 -172 364 -5 60 -4 69 16 90 14 15 40 27 67 31 48 7 84
41 84 80 0 12 -18 60 -40 107 -48 104 -62 188 -35 218 10 11 31 20 47 20 43 0
95 25 103 50 4 11 4 58 0 103 -6 87 3 137 32 169 13 15 28 18 66 16 41 -2 54
-8 71 -31z m-1560 -756 c17 -11 52 -43 79 -70 60 -65 95 -68 157 -16 23 19 47
35 52 35 23 0 80 -76 119 -156 59 -122 101 -142 174 -84 43 34 46 35 84 16 33
-18 69 -63 103 -131 25 -48 88 -234 103 -304 l7 -33 -108 82 c-99 76 -110 82
-143 76 -43 -7 -71 -37 -71 -78 0 -45 12 -59 114 -138 52 -41 94 -75 93 -77
-9 -8 -293 41 -357 62 -127 42 -179 103 -135 161 8 10 15 38 15 61 0 51 -26
75 -103 94 -69 16 -115 36 -154 65 -38 29 -40 45 -14 88 42 69 29 113 -49 166
-103 70 -125 122 -74 174 32 31 65 33 108 7z m3081 -7 c49 -53 27 -105 -75
-174 -32 -22 -62 -45 -66 -52 -13 -21 -5 -79 16 -113 27 -44 25 -60 -12 -89
-41 -30 -86 -49 -158 -66 -95 -22 -127 -71 -90 -141 30 -58 26 -83 -17 -118
-52 -43 -163 -77 -327 -100 -77 -12 -141 -19 -143 -18 -1 2 41 36 93 77 102
79 114 93 114 138 0 41 -28 71 -71 78 -33 6 -44 0 -143 -76 l-108 -82 7 33
c16 74 79 257 106 312 34 65 100 137 128 137 10 0 35 -13 56 -30 73 -58 117
-37 173 83 36 78 97 157 120 157 5 0 29 -16 52 -35 61 -51 97 -48 152 11 89
96 148 116 193 68z m-1417 -1605 c225 -25 462 -113 615 -230 283 -215 397
-620 257 -913 -71 -151 -205 -288 -506 -521 -120 -93 -255 -201 -299 -238 -81
-69 -193 -190 -223 -240 -9 -15 -19 -27 -22 -27 -3 0 -13 12 -22 27 -30 50
-142 171 -223 240 -44 37 -179 145 -299 238 -369 286 -503 443 -551 646 -49
212 24 493 175 668 225 261 657 399 1098 350z"/>
<path d="M2695 2368 c-31 -17 -45 -39 -45 -74 0 -57 25 -74 146 -100 104 -22
111 -22 144 -6 67 33 59 128 -13 151 -35 12 -181 41 -200 41 -7 0 -21 -6 -32
-12z"/>
<path d="M3145 2210 c-28 -11 -41 -29 -50 -67 -6 -31 -2 -38 77 -120 90 -94
118 -141 144 -243 24 -96 15 -173 -30 -254 -22 -39 -36 -78 -36 -98 0 -46 34
-78 82 -78 30 0 42 7 67 37 61 74 101 187 101 286 0 199 -109 418 -257 516
-48 32 -64 36 -98 21z"/>
</g>
</svg>
