<?xml version="1.0" standalone="no"?>
<!DOCTYPE svg PUBLIC "-//W3C//DTD SVG 20010904//EN"
 "http://www.w3.org/TR/2001/REC-SVG-20010904/DTD/svg10.dtd">
<svg version="1.0" xmlns="http://www.w3.org/2000/svg"
 width="512.000000pt" height="512.000000pt" viewBox="0 0 512.000000 512.000000"
 preserveAspectRatio="xMidYMid meet">
<metadata>
Created by potrace 1.16, written by Peter Selinger 2001-2019
</metadata>
<g transform="translate(0.000000,512.000000) scale(0.100000,-0.100000)"
fill="#000000" stroke="none">
<path d="M759 4785 c-166 -54 -332 -202 -414 -369 -55 -111 -75 -188 -84 -320
-28 -405 133 -782 389 -911 193 -97 377 -94 527 9 27 18 66 58 88 90 36 52 40
64 43 131 3 42 -1 90 -8 112 -21 63 -80 143 -141 190 -70 55 -76 74 -40 116
42 48 53 75 53 127 0 48 -19 96 -46 119 -17 14 -21 48 -8 67 4 6 36 26 71 44
172 91 222 231 142 394 -74 150 -212 227 -405 226 -68 -1 -110 -7 -167 -25z"/>
<path d="M4018 4791 c-119 -38 -202 -110 -255 -220 -35 -74 -38 -176 -6 -236
30 -57 90 -111 164 -149 77 -39 86 -65 42 -123 -24 -31 -28 -45 -28 -103 0
-62 3 -71 38 -115 20 -27 37 -52 37 -57 0 -5 -13 -22 -29 -36 -16 -15 -50 -48
-77 -73 -71 -66 -106 -136 -112 -225 -4 -62 -1 -80 21 -127 62 -136 243 -230
409 -213 114 11 257 74 346 152 65 57 151 186 192 287 126 316 113 694 -32
920 -103 161 -258 280 -420 323 -75 20 -220 17 -290 -5z"/>
<path d="M1286 3941 c-4 -28 -9 -57 -12 -65 -4 -10 10 -15 60 -18 80 -5 138
-41 173 -107 l23 -44 0 -651 c0 -378 4 -676 10 -711 11 -69 40 -165 49 -164 3
0 26 25 50 55 36 46 42 60 35 82 -4 15 -10 342 -13 727 l-6 700 -26 55 c-52
109 -153 179 -270 188 l-66 4 -7 -51z"/>
<path d="M3680 3981 c-87 -27 -174 -104 -213 -189 -22 -46 -22 -57 -28 -752
-3 -388 -9 -716 -12 -730 -6 -21 1 -35 42 -80 l49 -55 23 70 24 70 5 700 c6
775 1 724 72 792 42 40 76 53 139 53 l50 0 -7 38 c-4 20 -7 49 -7 65 0 26 -2
27 -56 26 -31 0 -67 -4 -81 -8z"/>
<path d="M2330 3403 c-57 -41 -210 -111 -298 -135 l-83 -23 3 -330 3 -330 41
-85 c88 -183 267 -356 482 -464 l72 -36 57 26 c230 109 459 342 521 529 25 74
26 97 24 426 l-2 266 -50 11 c-83 19 -203 70 -291 122 l-82 50 -181 0 c-178
-1 -182 -1 -216 -27z m360 -233 c17 -17 20 -33 20 -105 l0 -85 85 0 c121 0
125 -5 125 -160 0 -155 -4 -160 -125 -160 l-85 0 0 -85 c0 -121 -5 -125 -160
-125 -155 0 -160 4 -160 125 l0 85 -85 0 c-121 0 -125 5 -125 158 0 155 1 156
118 160 l90 4 4 90 c4 117 5 118 160 118 105 0 120 -2 138 -20z"/>
<path d="M2500 2991 c0 -117 -4 -121 -121 -121 l-89 0 0 -50 0 -50 89 0 c117
0 121 -4 121 -121 l0 -89 50 0 50 0 0 88 c0 116 6 122 123 122 l87 0 0 50 0
50 -89 0 c-117 0 -121 4 -121 121 l0 89 -50 0 -50 0 0 -89z"/>
<path d="M1883 2315 c-124 -83 -246 -239 -304 -389 -34 -87 -59 -222 -59 -316
0 -294 231 -602 610 -812 120 -66 173 -115 189 -175 6 -21 11 -112 11 -203 0
-91 5 -172 10 -180 7 -12 43 -16 192 -18 110 -2 194 1 211 7 l27 11 0 165 c0
93 5 186 12 212 16 66 81 126 203 191 296 155 525 420 581 670 20 90 15 250
-11 352 -41 160 -161 347 -287 447 -61 49 -115 81 -121 72 -2 -2 -28 -35 -57
-73 -34 -44 -50 -71 -42 -74 27 -9 134 -96 175 -142 125 -143 192 -350 166
-511 -35 -219 -256 -458 -577 -624 -101 -53 -161 -121 -206 -237 -16 -41 -55
-59 -81 -38 -8 7 -30 45 -50 85 -42 87 -110 154 -211 205 -258 131 -461 334
-531 530 -27 79 -31 205 -8 295 21 83 84 209 138 276 38 47 134 130 185 158
13 8 12 12 -7 37 -12 16 -36 48 -54 72 -17 23 -36 42 -42 42 -5 0 -33 -16 -62
-35z"/>
<path d="M2092 2099 c-115 -65 -221 -208 -257 -345 -21 -81 -19 -99 9 -112 14
-6 43 -27 65 -47 72 -65 130 -65 203 1 84 76 173 93 263 50 28 -13 63 -38 79
-55 58 -61 127 -60 198 5 84 76 173 93 263 50 28 -13 63 -38 79 -55 58 -61
127 -60 197 4 22 20 51 41 65 47 27 13 30 35 13 108 -29 130 -151 291 -265
352 l-51 27 -77 -59 c-119 -91 -281 -180 -327 -180 -46 0 -322 163 -374 220
-10 11 -21 20 -24 20 -3 0 -30 -14 -59 -31z"/>
<path d="M2215 1541 c-16 -10 -39 -28 -50 -41 -72 -81 -218 -85 -302 -7 -22
20 -23 20 -23 1 0 -38 76 -150 160 -234 93 -93 173 -150 325 -232 77 -42 112
-68 165 -125 l67 -73 14 26 c24 46 129 134 202 170 224 112 419 293 483 448
l16 40 -24 -17 c-60 -44 -104 -60 -159 -60 -62 1 -119 25 -159 68 -58 63 -124
72 -188 26 -22 -16 -43 -35 -47 -40 -3 -6 -25 -21 -48 -33 -81 -41 -194 -21
-257 47 -52 56 -120 70 -175 36z"/>
</g>
</svg>
