<?xml version="1.0" standalone="no"?>
<!DOCTYPE svg PUBLIC "-//W3C//DTD SVG 20010904//EN"
 "http://www.w3.org/TR/2001/REC-SVG-20010904/DTD/svg10.dtd">
<svg version="1.0" xmlns="http://www.w3.org/2000/svg"
 width="512.000000pt" height="512.000000pt" viewBox="0 0 512.000000 512.000000"
 preserveAspectRatio="xMidYMid meet">
<metadata>
Created by potrace 1.16, written by Peter Selinger 2001-2019
</metadata>
<g transform="translate(0.000000,512.000000) scale(0.100000,-0.100000)"
fill="#000000" stroke="none">
<path d="M894 4606 c-500 -128 -775 -372 -834 -739 -16 -97 -8 -307 15 -397
25 -96 96 -236 157 -308 174 -204 476 -339 920 -412 68 -11 130 -20 138 -20
34 0 40 57 40 406 0 332 4 386 35 467 7 16 -3 17 -128 17 -276 0 -430 58 -493
186 -25 51 -26 61 -22 157 5 112 26 178 89 284 42 69 150 186 235 254 55 43
64 55 64 83 0 67 -29 70 -216 22z"/>
<path d="M4022 4628 c-7 -7 -12 -26 -12 -44 0 -28 9 -40 64 -83 85 -68 193
-185 235 -254 63 -106 84 -172 89 -284 4 -96 3 -106 -22 -157 -63 -129 -215
-186 -493 -186 -125 0 -135 -1 -128 -17 31 -81 35 -135 35 -461 0 -345 6 -412
39 -412 30 0 258 39 347 60 145 33 272 78 399 140 202 99 329 218 410 385 58
120 75 195 82 351 12 281 -60 472 -244 644 -143 133 -339 230 -599 296 -146
37 -183 41 -202 22z"/>
<path d="M1938 3849 c-81 -12 -171 -36 -261 -71 -96 -37 -174 -108 -215 -195
l-27 -58 -5 -380 -5 -380 -27 -66 c-32 -80 -58 -210 -58 -293 1 -190 91 -370
273 -543 84 -79 109 -120 127 -205 l11 -58 49 73 c48 71 152 185 197 214 21
14 26 14 48 -1 14 -9 25 -25 25 -36 0 -11 -38 -57 -89 -108 -75 -75 -97 -105
-137 -187 -48 -96 -49 -100 -49 -190 0 -103 9 -122 74 -154 28 -13 39 -29 62
-85 32 -79 81 -135 148 -168 46 -23 48 -23 481 -23 433 0 435 0 481 23 67 33
116 89 148 168 23 56 34 72 62 85 65 32 74 51 74 154 0 90 -1 94 -48 189 -41
82 -64 113 -138 188 -49 50 -89 98 -89 109 0 10 11 26 25 35 22 15 27 15 48 1
45 -29 149 -143 197 -214 l49 -73 11 58 c18 85 41 122 130 208 187 181 270
348 270 544 0 82 -30 226 -64 309 l-26 64 0 352 c0 387 -3 411 -61 499 -61 92
-159 149 -342 198 -109 29 -275 33 -457 13 -189 -21 -380 -21 -520 -1 -112 17
-279 19 -372 5z m-84 -969 c111 -56 201 -141 295 -277 26 -39 23 -46 -37 -84
-80 -51 -179 -37 -252 34 -41 39 -88 137 -96 199 -8 60 4 158 19 158 7 0 39
-14 71 -30z m1502 -26 c9 -76 -1 -137 -35 -209 -49 -104 -118 -155 -213 -155
-43 0 -64 6 -100 29 -25 16 -49 34 -52 40 -14 21 120 190 197 250 54 41 162
101 184 101 7 0 14 -23 19 -56z m-1026 -1477 c-21 -87 -50 -147 -81 -162 -45
-24 -77 -19 -115 19 -52 52 -43 124 19 158 36 19 182 56 185 46 2 -5 -2 -32
-8 -61z m631 17 c68 -35 79 -106 25 -160 -36 -36 -67 -42 -111 -22 -32 14 -58
62 -79 145 -25 97 -28 94 61 71 42 -11 89 -26 104 -34z"/>
<path d="M761 2690 c-35 -17 -117 -50 -183 -76 -67 -25 -130 -52 -142 -60 -38
-24 -66 -86 -66 -145 0 -109 58 -160 235 -211 69 -20 103 -23 250 -23 178 0
234 9 353 57 46 18 53 24 48 42 -16 54 -17 185 -2 266 8 46 13 86 11 88 -2 2
-67 14 -144 27 -119 21 -181 34 -281 60 -8 2 -44 -9 -79 -25z"/>
<path d="M4210 2698 c-41 -10 -137 -30 -213 -43 -76 -13 -140 -25 -142 -27 -2
-2 3 -42 11 -88 15 -81 14 -233 -1 -273 -5 -11 8 -20 52 -37 130 -49 171 -55
348 -55 147 0 181 3 249 23 180 52 236 102 236 211 0 108 -31 137 -230 214
-63 25 -141 57 -173 71 -32 14 -59 26 -60 25 -1 0 -36 -10 -77 -21z"/>
<path d="M2082 778 c8 -117 71 -215 164 -254 133 -56 493 -57 625 -1 96 40
159 137 167 255 l5 73 -44 -8 c-57 -10 -821 -10 -878 0 l-44 8 5 -73z"/>
</g>
</svg>
