<?xml version="1.0" standalone="no"?>
<!DOCTYPE svg PUBLIC "-//W3C//DTD SVG 20010904//EN"
 "http://www.w3.org/TR/2001/REC-SVG-20010904/DTD/svg10.dtd">
<svg version="1.0" xmlns="http://www.w3.org/2000/svg"
 width="512.000000pt" height="512.000000pt" viewBox="0 0 512.000000 512.000000"
 preserveAspectRatio="xMidYMid meet">
<metadata>
Created by potrace 1.16, written by Peter Selinger 2001-2019
</metadata>
<g transform="translate(0.000000,512.000000) scale(0.100000,-0.100000)"
fill="#000000" stroke="none">
<path d="M505 4955 l-35 -36 0 -194 0 -195 -169 0 c-93 0 -183 -3 -201 -6 -18
-4 -48 -22 -66 -41 l-34 -34 0 -251 0 -251 25 -33 c35 -46 74 -54 273 -54
l172 0 0 -195 0 -194 35 -35 c44 -44 78 -49 335 -44 289 5 290 6 290 286 l0
180 193 4 c209 3 219 6 258 65 17 25 19 51 19 268 0 217 -2 243 -19 268 -39
59 -49 62 -258 65 l-193 4 0 180 c0 287 10 278 -339 278 l-250 0 -36 -35z
m465 -300 c0 -201 5 -224 56 -264 25 -20 39 -21 220 -21 l194 0 0 -175 0 -175
-191 0 c-177 0 -193 -1 -220 -21 -54 -38 -59 -60 -59 -264 l0 -185 -169 0
-169 0 -4 193 c-5 280 -2 277 -288 277 l-190 0 0 175 0 175 190 0 c286 0 283
-3 288 278 l4 192 169 0 169 0 0 -185z"/>
<path d="M2551 4639 c-47 -50 -115 -180 -136 -264 -11 -39 -15 -96 -14 -166
l3 -107 -62 -68 c-40 -44 -79 -102 -108 -160 l-45 -91 -77 -5 c-66 -5 -83 -2
-117 16 -35 18 -57 21 -170 21 -114 0 -135 -3 -170 -22 -77 -41 -115 -105
-115 -193 0 -61 17 -104 59 -152 30 -35 31 -36 22 -104 -19 -160 27 -301 137
-412 69 -71 133 -109 221 -134 56 -15 104 -18 318 -18 l253 0 0 -953 0 -953
-92 -11 c-112 -12 -188 -40 -263 -96 -103 -76 -173 -192 -197 -330 l-10 -57
-38 0 c-33 0 -38 3 -43 28 -7 36 -50 79 -88 87 l-29 7 0 248 0 249 -26 20
c-45 35 -95 26 -119 -20 -12 -22 -15 -78 -15 -277 0 -137 3 -264 6 -281 7 -36
52 -83 86 -91 16 -4 24 -14 26 -33 l3 -27 -105 0 -106 0 0 314 c0 323 -5 367
-40 386 -31 16 -79 11 -100 -10 -19 -19 -20 -33 -20 -312 0 -292 0 -293 -19
-253 -20 44 -45 69 -78 79 -23 7 -23 8 -23 230 0 211 -1 225 -21 250 -27 35
-86 36 -117 3 -21 -23 -22 -30 -22 -275 0 -191 3 -261 14 -285 14 -34 54 -67
81 -67 10 0 15 -10 15 -30 l0 -30 -105 0 -105 0 0 333 c0 322 -1 334 -20 355
-28 30 -90 30 -116 1 -18 -20 -19 -42 -22 -310 l-3 -289 -141 0 -141 0 6 105
c24 389 148 765 337 1020 l55 74 30 -20 c109 -72 239 -117 364 -125 77 -6 196
5 259 22 21 6 22 4 22 -69 0 -86 12 -120 47 -136 37 -17 62 -13 88 14 24 23
25 30 25 147 l0 123 44 28 c66 41 156 143 198 222 48 93 68 174 68 280 0 85 1
89 39 146 78 117 106 250 81 385 -17 89 -42 116 -128 134 -117 24 -258 0 -362
-63 l-55 -33 -60 20 c-86 27 -300 28 -406 2 l-75 -19 -40 27 c-128 84 -369
101 -453 30 -36 -30 -51 -87 -51 -196 0 -122 31 -218 99 -308 24 -32 26 -44
27 -130 2 -131 30 -227 96 -326 l27 -41 -46 -59 c-25 -33 -61 -84 -81 -114
-47 -73 -145 -272 -167 -338 -9 -28 -19 -52 -22 -52 -7 0 6 111 23 191 18 89
54 182 109 283 34 62 45 94 45 126 0 180 -226 247 -328 98 -76 -111 -149 -294
-182 -460 -27 -128 -29 -351 -5 -483 27 -154 97 -339 171 -457 13 -21 24 -40
24 -42 0 -3 -76 -6 -169 -8 -149 -3 -171 -5 -190 -22 -28 -26 -29 -88 -1 -116
19 -19 33 -20 424 -20 396 0 405 0 411 -20 3 -11 21 -31 39 -45 32 -25 36 -25
214 -25 l181 0 36 31 c19 17 35 37 35 45 0 24 19 15 35 -16 28 -53 55 -60 250
-60 195 0 222 7 250 60 l16 30 1044 0 1044 0 20 26 c36 45 20 105 -32 124 -18
6 -134 10 -289 10 l-258 0 6 28 c17 75 25 97 54 143 41 62 93 104 171 135 114
44 120 64 60 188 -60 123 -74 223 -46 331 57 219 217 352 458 381 56 6 87 34
87 78 -1 66 -43 87 -148 75 -153 -17 -263 -70 -378 -184 -137 -137 -189 -263
-188 -460 1 -115 11 -167 49 -257 7 -17 -7 -18 -204 -18 l-211 0 0 441 c0 268
-4 447 -10 459 -15 28 -67 43 -98 27 -52 -24 -52 -14 -52 -714 l0 -653 -420 0
-419 0 6 33 c25 132 106 230 225 273 25 9 94 18 166 21 116 6 124 7 142 31 20
24 20 47 20 1032 l0 1008 168 4 c137 4 179 9 237 28 96 31 170 70 249 130 44
34 68 46 71 38 2 -7 34 -137 70 -288 36 -151 72 -285 80 -297 30 -45 97 -40
130 10 13 20 14 33 6 68 -5 24 -9 44 -8 46 2 1 45 -30 97 -68 85 -63 99 -70
130 -65 57 9 87 65 60 115 -13 25 -160 135 -252 188 -43 25 -81 51 -86 57 -5
6 -30 102 -57 213 l-47 202 32 76 c70 169 78 358 24 531 -15 48 -15 58 0 122
21 91 21 246 0 326 -19 74 -75 182 -125 243 -84 102 -224 189 -344 214 -72 14
-92 6 -140 -61 -66 -91 -55 -86 -99 -51 -73 58 -225 121 -293 121 -13 0 -39
-17 -62 -41z m218 -181 c20 -13 55 -40 78 -61 37 -34 41 -43 36 -70 -3 -18 -7
-33 -8 -34 -1 -2 -37 -8 -80 -14 -66 -9 -140 -30 -217 -64 -15 -6 -18 -1 -18
32 0 58 27 150 61 209 l30 53 41 -15 c22 -8 57 -24 77 -36z m481 -5 c193 -113
275 -379 184 -594 -28 -68 -27 -93 10 -132 17 -18 28 -47 36 -99 30 -174 -22
-353 -145 -495 -49 -58 -169 -136 -252 -164 -95 -33 -257 -34 -358 -2 -192 60
-343 224 -395 429 -86 335 150 677 501 728 l47 7 16 -68 c10 -37 34 -99 54
-138 30 -56 43 -71 68 -78 65 -19 122 41 97 101 -6 15 -23 55 -37 88 -63 149
-48 317 40 452 14 21 16 22 52 7 20 -9 57 -28 82 -42z m-1314 -817 c21 -29 17
-63 -8 -80 -16 -11 -46 -16 -103 -16 -98 0 -128 15 -123 63 4 46 36 58 136 55
69 -3 86 -6 98 -22z m216 -72 c-8 -118 34 -295 96 -404 32 -57 84 -123 141
-178 l44 -44 -204 4 c-203 3 -204 3 -262 33 -116 58 -188 175 -188 302 0 101
2 103 78 103 36 0 83 5 104 11 82 25 148 110 149 192 0 32 3 37 23 37 21 0 22
-4 19 -56z m-1214 -1005 l33 -11 -54 -48 c-29 -27 -71 -74 -92 -105 l-39 -56
-15 28 c-8 16 -17 65 -19 115 -4 78 -3 87 14 91 28 8 134 0 172 -14z m1118 4
c13 -14 16 -29 11 -84 -3 -36 -13 -83 -21 -104 l-16 -38 -31 46 c-16 25 -59
72 -93 105 l-64 59 41 13 c23 7 47 14 52 15 34 11 105 3 121 -12z m-526 -57
c161 -34 300 -138 368 -274 35 -73 37 -80 37 -177 0 -99 -1 -104 -39 -179
-160 -315 -630 -382 -886 -126 -125 125 -166 283 -114 437 79 232 365 376 634
319z m-996 -765 c3 -5 -17 -53 -45 -107 -88 -173 -122 -320 -122 -519 0 -135
11 -215 43 -323 12 -38 17 -74 13 -93 l-6 -31 -14 33 c-8 19 -26 77 -41 129
-24 87 -26 110 -27 285 0 167 3 200 23 273 29 106 70 210 117 295 36 65 48 77
59 58z m2834 -1088 c-40 -78 -69 -150 -73 -185 -13 -93 -8 -88 -80 -88 l-65 0
0 140 0 140 111 0 c61 0 109 -3 107 -7z"/>
<path d="M2643 3858 c-34 -17 -46 -68 -41 -185 3 -96 6 -107 27 -124 31 -25
85 -25 111 1 18 18 20 33 20 149 0 128 0 130 -26 150 -29 23 -57 26 -91 9z"/>
<path d="M1189 2289 c-35 -13 -49 -48 -49 -123 0 -83 20 -111 80 -111 60 0 80
28 80 111 0 78 -14 110 -53 124 -16 5 -30 10 -31 9 -1 0 -13 -5 -27 -10z"/>
<path d="M1575 2292 c-45 -9 -55 -30 -55 -118 0 -77 2 -84 26 -103 15 -12 37
-21 49 -21 12 0 34 9 49 21 24 19 26 26 26 98 0 103 -26 136 -95 123z"/>
<path d="M1114 1979 c-23 -26 -24 -101 -1 -145 33 -64 113 -114 179 -114 18 1
51 7 73 15 34 12 45 12 88 -2 130 -42 267 52 267 184 0 56 -25 83 -78 83 -45
0 -69 -21 -78 -69 -4 -21 -15 -37 -31 -44 -20 -9 -28 -6 -58 23 -48 46 -94 47
-135 2 -16 -18 -36 -32 -44 -32 -18 0 -46 38 -46 62 0 53 -97 80 -136 37z"/>
<path d="M4133 2268 c-42 -46 -34 -81 38 -172 175 -223 307 -498 375 -783 48
-202 56 -283 61 -616 l5 -317 -144 0 c-159 0 -200 -9 -217 -46 -16 -36 -14
-58 10 -88 l20 -26 400 0 c386 0 400 1 419 20 28 28 27 90 -1 116 -18 17 -41
19 -175 22 l-154 4 0 189 0 188 98 98 c87 87 104 110 150 203 74 150 93 237
99 447 6 181 -11 333 -43 394 -21 41 -67 62 -123 56 -60 -7 -97 -47 -106 -114
-13 -106 -28 -162 -66 -238 -37 -74 -94 -155 -102 -144 -2 2 -18 49 -36 104
-39 119 -138 328 -209 442 -64 103 -163 235 -198 262 -35 27 -75 27 -101 -1z
m812 -920 c-30 -147 -76 -249 -148 -333 l-34 -39 -8 69 c-4 39 -13 104 -20
145 l-13 75 60 64 c64 68 112 138 150 216 l23 47 3 -82 c2 -48 -4 -115 -13
-162z"/>
</g>
</svg>
