<?xml version="1.0" standalone="no"?>
<!DOCTYPE svg PUBLIC "-//W3C//DTD SVG 20010904//EN"
 "http://www.w3.org/TR/2001/REC-SVG-20010904/DTD/svg10.dtd">
<svg version="1.0" xmlns="http://www.w3.org/2000/svg"
 width="512.000000pt" height="512.000000pt" viewBox="0 0 512.000000 512.000000"
 preserveAspectRatio="xMidYMid meet">
<metadata>
Created by potrace 1.16, written by Peter Selinger 2001-2019
</metadata>
<g transform="translate(0.000000,512.000000) scale(0.100000,-0.100000)"
fill="#000000" stroke="none">
<path d="M2345 5097 c-58 -28 -127 -98 -150 -154 -9 -21 -19 -71 -22 -111 -3
-41 -11 -75 -17 -77 -363 -102 -617 -282 -736 -521 -62 -125 -72 -187 -72
-489 0 -300 27 -659 71 -933 l8 -53 -41 -21 c-127 -64 -269 -180 -325 -265
-41 -61 -42 -113 -5 -142 53 -42 71 -32 177 92 26 30 84 80 130 111 79 53 82
54 89 33 17 -52 138 -916 138 -982 0 -17 -10 -24 -51 -34 -57 -15 -144 -71
-183 -118 -71 -86 -104 -225 -86 -372 13 -107 31 -135 87 -139 34 -3 44 1 63
25 20 25 21 34 13 98 -18 155 1 239 68 300 36 32 76 55 98 55 4 0 13 -34 20
-75 15 -92 47 -188 91 -274 36 -73 154 -267 178 -293 21 -25 86 -24 112 2 37
37 26 74 -69 233 -127 208 -151 281 -171 507 -11 131 -46 431 -56 487 l-6 33
285 0 c272 0 285 1 311 21 30 24 36 81 12 115 -14 18 -32 19 -323 24 l-308 5
-6 45 c-127 852 -159 1139 -159 1412 l0 137 296 3 296 3 24 28 c29 34 31 66 3
101 l-20 26 -300 0 -299 0 0 25 c0 203 210 446 488 565 185 79 320 105 557
104 349 0 596 -79 825 -263 l45 -36 -249 -5 c-246 -5 -248 -5 -267 -29 -25
-31 -25 -85 1 -111 19 -19 33 -20 330 -20 l311 0 20 -47 c27 -64 38 -160 39
-334 0 -133 2 -149 21 -173 28 -36 86 -36 119 -1 23 24 23 25 17 232 -6 222
-17 283 -64 377 -114 227 -350 408 -661 506 l-100 32 -4 82 c-5 94 -30 149
-93 204 -72 64 -84 67 -275 70 -167 3 -177 2 -225 -21z m363 -151 c43 -22 72
-71 72 -121 l0 -40 -225 0 -225 0 0 28 c0 65 51 132 112 148 56 14 229 5 266
-15z"/>
<path d="M1869 3581 c-18 -14 -24 -29 -24 -61 0 -32 6 -47 24 -61 21 -17 41
-19 183 -19 155 0 159 1 183 25 16 15 25 36 25 55 0 19 -9 40 -25 55 -24 24
-28 25 -183 25 -142 0 -162 -2 -183 -19z"/>
<path d="M3640 3387 c-31 -16 -50 -52 -50 -96 0 -19 -7 -97 -16 -175 -15 -134
-32 -253 -138 -976 -48 -328 -58 -411 -81 -648 -8 -84 -22 -179 -31 -212 l-17
-60 -269 0 -269 0 -24 -25 c-33 -32 -33 -78 0 -110 l24 -25 226 0 c124 0 225
-3 225 -7 -1 -5 -25 -46 -54 -93 l-53 -85 -336 -5 c-311 -5 -336 -6 -356 -24
-29 -26 -29 -86 0 -112 19 -17 44 -19 305 -24 l284 -5 -96 -159 c-169 -283
-213 -345 -256 -367 -45 -23 -128 -27 -182 -9 -48 16 -84 60 -199 248 -54 88
-105 163 -113 166 -31 12 -81 6 -97 -11 -37 -42 -33 -68 28 -171 96 -161 195
-306 227 -331 58 -47 135 -71 229 -71 105 0 169 19 234 69 41 31 88 101 336
506 324 527 342 563 386 792 l8 43 51 -24 c28 -13 64 -40 81 -61 47 -56 57
-107 49 -242 -6 -111 -5 -118 16 -140 25 -27 73 -31 105 -8 31 22 46 107 41
234 -6 130 -30 198 -95 271 -53 59 -106 92 -184 114 -51 15 -55 18 -52 44 2
15 12 104 23 197 20 167 107 758 115 783 11 32 182 -104 286 -226 41 -48 71
-54 113 -21 37 29 36 81 -5 142 -46 70 -155 165 -255 224 -49 29 -94 56 -101
60 -9 6 -6 54 13 193 13 102 27 235 30 295 6 100 5 112 -12 127 -27 24 -65 30
-94 15z"/>
<path d="M1989 3171 c-22 -18 -24 -27 -24 -111 0 -84 2 -93 24 -111 30 -25 72
-24 105 2 25 19 26 25 26 109 0 84 -1 90 -26 109 -33 26 -75 27 -105 2z"/>
<path d="M3033 3178 c-39 -19 -57 -125 -33 -195 19 -52 79 -68 124 -32 25 19
26 25 26 109 0 84 -1 90 -26 109 -29 23 -57 26 -91 9z"/>
<path d="M2361 3064 c-25 -32 -27 -61 -4 -94 77 -113 260 -129 371 -35 36 31
42 42 42 76 0 81 -69 103 -150 48 -52 -35 -84 -34 -132 6 -42 35 -99 35 -127
-1z"/>
<path d="M2060 1780 c-28 -28 -27 -90 1 -116 19 -17 38 -19 186 -19 161 0 165
1 184 24 25 31 25 85 -1 111 -18 18 -33 20 -185 20 -152 0 -167 -2 -185 -20z"/>
</g>
</svg>
